<svg width="908" height="761" viewBox="0 0 908 761" fill="none" xmlns="http://www.w3.org/2000/svg">
<path d="M452.73 96.1124C456.573 98.0262 462.22 100.759 469.525 104.08C484.133 110.721 505.379 119.721 532.082 129.233C583.612 147.589 655.591 167.897 739.472 176.792C739.47 178.208 739.468 179.639 739.466 181.085C739.388 238.508 739.278 318.875 708.63 403.522C675.692 494.49 607.194 590.996 463.476 667.829C459.833 669.583 457.204 671.059 455.25 672.245C453.281 671.05 450.628 669.561 446.943 667.79C300.748 592.939 231.416 496.449 198.243 405.015C167.603 320.563 167.56 239.921 167.529 182.416C167.528 180.49 167.527 178.589 167.525 176.715C255.332 166.716 326.474 146.388 376.175 128.27C401.871 118.903 421.848 110.123 435.45 103.656C442.251 100.423 447.459 97.7676 450.993 95.9058C451.214 95.7893 451.429 95.6759 451.637 95.5656C451.983 95.7396 452.348 95.922 452.73 96.1124Z" fill="#171717" stroke="white" stroke-width="20"/>
<path d="M481.757 270.728C475.275 268.862 468.527 272.631 466.659 279.105L417.855 449.694C415.986 456.167 419.761 462.907 426.243 464.772C432.725 466.638 439.473 462.869 441.342 456.395L490.145 285.806C492.014 279.333 488.239 272.593 481.757 270.728ZM512.488 316.459C507.722 321.219 507.722 328.949 512.488 333.708L546.537 367.75L512.45 401.792C507.684 406.551 507.684 414.281 512.45 419.041C517.216 423.801 524.956 423.801 529.722 419.041L572.426 376.394C577.192 371.634 577.192 363.904 572.426 359.144L529.722 316.497C524.956 311.737 517.216 311.737 512.45 316.497L512.488 316.459ZM395.55 316.459C390.784 311.699 383.044 311.699 378.278 316.459L335.574 359.106C330.809 363.866 330.809 371.596 335.574 376.356L378.278 419.003C383.044 423.763 390.784 423.763 395.55 419.003C400.316 414.243 400.316 406.513 395.55 401.754L361.463 367.75L395.55 333.708C400.316 328.949 400.316 321.219 395.55 316.459Z" fill="white"/>
<path d="M10 187.25V10.25H187.5" stroke="white" stroke-width="20"/>
<path d="M720.25 9.99999L897.25 10L897.25 187.5" stroke="white" stroke-width="20"/>
<path d="M897.25 573.5L897.25 750.5L719.75 750.5" stroke="white" stroke-width="20"/>
<path d="M187 750.75L10 750.75L9.99999 573.25" stroke="white" stroke-width="20"/>
</svg>
